<svg xmlns="http://www.w3.org/2000/svg" width="32" height="32" viewBox="0 0 32 32"><path d="M 15.996094 2 C 8.2700371 2 2.0000113 8.2778341 2 16.003906 C 1.9999887 23.729978 8.270022 30 15.996094 30 C 23.722165 30 30.000011 23.729978 30 16.003906 C 29.999989 8.2778341 23.72215 2 15.996094 2 z M 15.996094 3.0039062 C 23.18171 3.0039062 28.996086 8.8182688 28.996094 16.003906 C 28.996105 23.189506 23.181725 29.003906 15.996094 29.003906 C 8.8104604 29.003906 2.9960824 23.189506 2.9960938 16.003906 C 2.9961013 8.8182688 8.8104755 3.0039062 15.996094 3.0039062 z M 9.4980469 9 C 8.6757079 9 8 9.6776126 8 10.5 C 8 11.148378 8.4229294 11.699396 9.0039062 11.90625 L 9.0039062 17.498047 A 0.50004996 0.50004996 0 0 0 9.0039062 17.572266 L 9.0039062 19.498047 C 9.0039062 20.143552 9.4231572 20.69326 10 20.902344 L 10 21.498047 C 10 22.146274 10.423208 22.699245 11.003906 22.90625 L 11.003906 24.496094 A 0.50004988 0.50004988 0 0 0 11.498047 24.998047 L 13.5 24.998047 A 0.50004988 0.50004988 0 0 0 14.001953 24.496094 L 14.001953 22.902344 C 14.577724 22.691446 14.998047 22.141322 14.998047 21.498047 L 14.998047 20.996094 L 17.005859 20.996094 L 17.005859 21.505859 C 17.005859 22.148341 17.425966 22.696272 18.001953 22.904297 L 18.001953 24.496094 A 0.50004996 0.50004996 0 0 0 18.503906 24.998047 L 20.503906 24.998047 A 0.50004996 0.50004996 0 0 0 21 24.496094 L 21 22.90625 C 21.580005 22.7014 22.003906 22.15265 22.003906 21.505859 L 22.003906 20.902344 C 22.580496 20.692958 23 20.143363 23 19.498047 L 23 17.576172 A 0.50004996 0.50004996 0 0 0 23 17.498047 L 23 11.90625 C 23.580698 11.699132 24.003906 11.148189 24.003906 10.5 C 24.003906 9.6776126 23.328198 9 22.505859 9 L 18.503906 9 C 17.681567 9 16.998047 9.6776126 16.998047 10.5 C 16.998047 11.146035 17.422298 11.695667 18.001953 11.904297 L 18.001953 14.134766 C 17.773749 14.054262 17.534792 13.998047 17.279297 13.998047 L 14.339844 13.998047 C 14.223778 13.998047 14.113109 14.016259 14.001953 14.035156 L 14.001953 11.904297 C 14.581608 11.695667 15.005859 11.146035 15.005859 10.5 C 15.005859 9.6776126 14.322339 9 13.5 9 L 9.4980469 9 z M 9.4980469 9.9980469 L 13.5 9.9980469 C 13.785649 9.9980469 14.001953 10.21423 14.001953 10.5 C 14.001953 10.785732 13.785624 11.001953 13.5 11.001953 L 9.5058594 11.001953 A 0.50004996 0.50004996 0 0 0 9.4980469 11.001953 C 9.2124204 11.001953 9.0039063 10.785392 9.0039062 10.5 C 9.003904 10.214268 9.2123985 9.9980469 9.4980469 9.9980469 z M 18.503906 9.9980469 L 22.505859 9.9980469 C 22.791508 9.9980469 23 10.21423 23 10.5 C 23 10.785732 22.791487 11.001953 22.505859 11.001953 L 18.503906 11.001953 C 18.21828 11.001953 18.001953 10.785392 18.001953 10.5 C 18.001953 10.214268 18.218256 9.9980469 18.503906 9.9980469 z M 10 11.998047 L 13.003906 11.998047 L 13.003906 14.453125 C 12.520324 14.816716 12.170899 15.366639 12.048828 15.998047 L 10.501953 15.998047 C 10.3252 15.998047 10.157982 16.03586 10 16.091797 L 10 11.998047 z M 18.998047 11.998047 L 22.003906 11.998047 L 22.003906 16.091797 C 21.845786 16.034348 21.678889 15.998047 21.501953 15.998047 L 19.5625 15.998047 C 19.476735 15.551496 19.274938 15.149131 18.996094 14.820312 A 0.50004996 0.50004996 0 0 0 18.996094 14.818359 A 0.50004996 0.50004996 0 0 0 18.998047 14.714844 L 18.998047 11.998047 z M 14.339844 14.994141 L 17.279297 14.994141 C 18.004594 14.994141 18.615234 15.638419 18.615234 16.5 C 18.615234 17.361619 18.004594 18 17.279297 18 L 14.339844 18 C 13.614546 18 13.003906 17.361619 13.003906 16.5 C 13.003906 15.638419 13.614546 14.994141 14.339844 14.994141 z M 14.501953 15.998047 A 0.49999999 0.49999999 0 0 0 14.001953 16.498047 A 0.49999999 0.49999999 0 0 0 14.501953 16.998047 A 0.49999999 0.49999999 0 0 0 15.001953 16.498047 A 0.49999999 0.49999999 0 0 0 14.501953 15.998047 z M 17.501953 15.998047 A 0.49999999 0.49999999 0 0 0 17.001953 16.498047 A 0.49999999 0.49999999 0 0 0 17.501953 16.998047 A 0.49999999 0.49999999 0 0 0 18.001953 16.498047 A 0.49999999 0.49999999 0 0 0 17.501953 15.998047 z M 10.501953 16.996094 L 12.046875 16.996094 C 12.261991 18.121788 13.193829 18.996094 14.339844 18.996094 L 17.279297 18.996094 C 18.425313 18.996094 19.350748 18.121788 19.564453 16.996094 L 21.501953 16.996094 C 21.787587 16.996094 22.003906 17.212277 22.003906 17.498047 A 0.50004996 0.50004996 0 0 0 22.003906 17.597656 L 22.003906 19.498047 C 22.003906 19.783779 21.787611 20 21.501953 20 L 10.501953 20 C 10.216293 20 10 19.783817 10 19.498047 L 10 17.576172 A 0.50004996 0.50004996 0 0 0 10 17.498047 C 10 17.212315 10.216318 16.996094 10.501953 16.996094 z M 11.003906 20.996094 L 13.994141 20.996094 L 13.994141 21.498047 C 13.994141 21.783779 13.777823 22 13.492188 22 L 11.498047 22 C 11.212413 22 11.003906 21.783817 11.003906 21.498047 L 11.003906 20.996094 z M 18.009766 20.996094 L 21 20.996094 L 21 21.505859 C 21 21.787812 20.793634 22 20.511719 22 L 18.503906 22 C 18.221991 22 18.009766 21.787585 18.009766 21.505859 L 18.009766 20.996094 z M 12 22.996094 L 13.003906 22.996094 L 13.003906 24 L 12 24 L 12 22.996094 z M 18.998047 22.996094 L 20.001953 22.996094 L 20.001953 24 L 18.998047 24 L 18.998047 22.996094 z " color="#000" font-family="sans-serif" font-weight="400" overflow="visible" style="line-height:normal;text-indent:0;text-align:start;text-decoration-line:none;text-decoration-style:solid;text-decoration-color:#000;text-transform:none;block-progression:tb;isolation:auto;mix-blend-mode:normal"/></svg>